<svg width="24" height="25" viewBox="0 0 24 25" fill="none" xmlns="http://www.w3.org/2000/svg">
<path d="M21 5.15234H3C2.80109 5.15234 2.61032 5.23136 2.46967 5.37201C2.32902 5.51267 2.25 5.70343 2.25 5.90234V18.6523C2.25 19.0502 2.40804 19.4317 2.68934 19.713C2.97064 19.9943 3.35218 20.1523 3.75 20.1523H20.25C20.6478 20.1523 21.0294 19.9943 21.3107 19.713C21.592 19.4317 21.75 19.0502 21.75 18.6523V5.90234C21.75 5.70343 21.671 5.51267 21.5303 5.37201C21.3897 5.23136 21.1989 5.15234 21 5.15234ZM19.0716 6.65234L12 13.1352L4.92844 6.65234H19.0716ZM20.25 18.6523H3.75V7.60766L11.4928 14.7055C11.6312 14.8325 11.8122 14.903 12 14.903C12.1878 14.903 12.3688 14.8325 12.5072 14.7055L20.25 7.60766V18.6523Z" fill="#6C7685"/>
</svg>
