<svg width="24" height="25" viewBox="0 0 24 25" fill="none" xmlns="http://www.w3.org/2000/svg">
<path d="M12 6.76562C11.2583 6.76562 10.5333 6.98556 9.91661 7.39761C9.29993 7.80967 8.81928 8.39534 8.53545 9.08056C8.25162 9.76578 8.17736 10.5198 8.32205 11.2472C8.46675 11.9746 8.8239 12.6428 9.34835 13.1673C9.8728 13.6917 10.541 14.0489 11.2684 14.1936C11.9958 14.3383 12.7498 14.264 13.4351 13.9802C14.1203 13.6963 14.706 13.2157 15.118 12.599C15.5301 11.9823 15.75 11.2573 15.75 10.5156C15.75 9.52106 15.3549 8.56724 14.6517 7.86397C13.9484 7.16071 12.9946 6.76562 12 6.76562ZM12 12.7656C11.555 12.7656 11.12 12.6337 10.75 12.3864C10.38 12.1392 10.0916 11.7878 9.92127 11.3767C9.75097 10.9655 9.70642 10.5131 9.79323 10.0767C9.88005 9.64021 10.0943 9.2393 10.409 8.92463C10.7237 8.60997 11.1246 8.39567 11.561 8.30886C11.9975 8.22204 12.4499 8.2666 12.861 8.4369C13.2722 8.60719 13.6236 8.89558 13.8708 9.26559C14.118 9.6356 14.25 10.0706 14.25 10.5156C14.25 11.1124 14.0129 11.6847 13.591 12.1066C13.169 12.5286 12.5967 12.7656 12 12.7656ZM12 2.26562C9.81273 2.26811 7.71575 3.1381 6.16911 4.68473C4.62247 6.23137 3.75248 8.32835 3.75 10.5156C3.75 13.4594 5.11031 16.5794 7.6875 19.5391C8.84552 20.8765 10.1489 22.0808 11.5734 23.1297C11.6995 23.218 11.8498 23.2654 12.0037 23.2654C12.1577 23.2654 12.308 23.218 12.4341 23.1297C13.856 22.0803 15.1568 20.876 16.3125 19.5391C18.8859 16.5794 20.25 13.4594 20.25 10.5156C20.2475 8.32835 19.3775 6.23137 17.8309 4.68473C16.2843 3.1381 14.1873 2.26811 12 2.26562ZM12 21.5781C10.4503 20.3594 5.25 15.8828 5.25 10.5156C5.25 8.72541 5.96116 7.00852 7.22703 5.74265C8.4929 4.47678 10.2098 3.76562 12 3.76562C13.7902 3.76562 15.5071 4.47678 16.773 5.74265C18.0388 7.00852 18.75 8.72541 18.75 10.5156C18.75 15.8809 13.5497 20.3594 12 21.5781Z" fill="#6C7685"/>
</svg>
