<svg width="24" height="25" viewBox="0 0 24 25" fill="none" xmlns="http://www.w3.org/2000/svg">
<path d="M12 20.6523C14.1217 20.6523 16.1566 19.8095 17.6569 18.3092C19.1571 16.8089 20 14.7741 20 12.6523C20 10.5306 19.1571 8.49578 17.6569 6.99549C16.1566 5.4952 14.1217 4.65234 12 4.65234C9.87827 4.65234 7.84344 5.4952 6.34315 6.99549C4.84285 8.49578 4 10.5306 4 12.6523C4 14.7741 4.84285 16.8089 6.34315 18.3092C7.84344 19.8095 9.87827 20.6523 12 20.6523ZM12 2.65234C13.3132 2.65234 14.6136 2.911 15.8268 3.41355C17.0401 3.9161 18.1425 4.65269 19.0711 5.58128C19.9997 6.50986 20.7362 7.61225 21.2388 8.82551C21.7413 10.0388 22 11.3391 22 12.6523C22 15.3045 20.9464 17.848 19.0711 19.7234C17.1957 21.5988 14.6522 22.6523 12 22.6523C6.47 22.6523 2 18.1523 2 12.6523C2 10.0002 3.05357 7.45664 4.92893 5.58128C6.8043 3.70591 9.34783 2.65234 12 2.65234ZM12.5 7.65234V12.9023L17 15.5723L16.25 16.8023L11 13.6523V7.65234H12.5Z" fill="#6C7685"/>
</svg>
