<svg width="22" height="22" viewBox="0 0 22 22" fill="none" xmlns="http://www.w3.org/2000/svg">
<path d="M13.4427 12.9312L13.0364 13.3357C13.0364 13.3357 12.0694 14.2965 9.43082 11.6731C6.79225 9.04974 7.75928 8.08896 7.75928 8.08896L8.01465 7.83359C8.64595 7.20676 8.70577 6.19955 8.15484 5.46378L7.02977 3.96101C6.34758 3.05023 5.03053 2.92969 4.24923 3.70652L2.84735 5.09947C2.46071 5.48521 2.20177 5.98346 2.23302 6.53707C2.31338 7.95413 2.9545 11.0017 6.52973 14.5573C10.322 18.3271 13.8802 18.4772 15.3348 18.3414C15.7955 18.2986 16.1956 18.0646 16.5179 17.7432L17.7858 16.4824C18.643 15.6314 18.402 14.1715 17.3055 13.5759L15.6 12.6482C14.8803 12.258 14.0052 12.3723 13.4427 12.9312Z" fill="white"/>
</svg>
