<svg width="24" height="25" viewBox="0 0 24 25" fill="none" xmlns="http://www.w3.org/2000/svg">
<path d="M16.5569 13.5583L16.1019 14.0113C16.1019 14.0113 15.0189 15.0873 12.0639 12.1493C9.10886 9.21132 10.1919 8.13532 10.1919 8.13532L10.4779 7.84932C11.1849 7.14732 11.2519 6.01932 10.6349 5.19532L9.37486 3.51232C8.61086 2.49232 7.13586 2.35732 6.26086 3.22732L4.69086 4.78732C4.25786 5.21932 3.96786 5.77732 4.00286 6.39732C4.09286 7.98432 4.81086 11.3973 8.81486 15.3793C13.0619 19.6013 17.0469 19.7693 18.6759 19.6173C19.1919 19.5693 19.6399 19.3073 20.0009 18.9473L21.4209 17.5353C22.3809 16.5823 22.1109 14.9473 20.8829 14.2803L18.9729 13.2413C18.1669 12.8043 17.1869 12.9323 16.5569 13.5583Z" fill="#6C7685"/>
</svg>
